<svg width="32" height="32" viewBox="0 0 32 32" fill="none" xmlns="http://www.w3.org/2000/svg">
<path d="M5.33337 8C5.33337 7.64638 5.47385 7.30724 5.7239 7.05719C5.97395 6.80714 6.31309 6.66666 6.66671 6.66666H25.3334C25.687 6.66666 26.0261 6.80714 26.2762 7.05719C26.5262 7.30724 26.6667 7.64638 26.6667 8C26.6667 8.35362 26.5262 8.69276 26.2762 8.94281C26.0261 9.19285 25.687 9.33333 25.3334 9.33333H6.66671C6.31309 9.33333 5.97395 9.19285 5.7239 8.94281C5.47385 8.69276 5.33337 8.35362 5.33337 8ZM5.33337 24C5.33337 23.6464 5.47385 23.3072 5.7239 23.0572C5.97395 22.8071 6.31309 22.6667 6.66671 22.6667H25.3334C25.687 22.6667 26.0261 22.8071 26.2762 23.0572C26.5262 23.3072 26.6667 23.6464 26.6667 24C26.6667 24.3536 26.5262 24.6928 26.2762 24.9428C26.0261 25.1929 25.687 25.3333 25.3334 25.3333H6.66671C6.31309 25.3333 5.97395 25.1929 5.7239 24.9428C5.47385 24.6928 5.33337 24.3536 5.33337 24ZM14.6667 14.6667C14.3131 14.6667 13.9739 14.8071 13.7239 15.0572C13.4739 15.3072 13.3334 15.6464 13.3334 16C13.3334 16.3536 13.4739 16.6928 13.7239 16.9428C13.9739 17.1929 14.3131 17.3333 14.6667 17.3333H25.3334C25.687 17.3333 26.0261 17.1929 26.2762 16.9428C26.5262 16.6928 26.6667 16.3536 26.6667 16C26.6667 15.6464 26.5262 15.3072 26.2762 15.0572C26.0261 14.8071 25.687 14.6667 25.3334 14.6667H14.6667Z" fill="white"/>
</svg>
