<svg width="64" height="64" viewBox="0 0 64 64" fill="none" xmlns="http://www.w3.org/2000/svg">
<rect width="64" height="64" />
<path d="M35.5883 21.5816C36.0298 22.0616 36.2512 22.5907 36.2512 23.1696C36.2512 23.6419 36.1349 24.1751 35.9027 24.7692C35.6701 25.3632 35.4057 25.9366 35.1087 26.4886C34.8117 27.0411 34.4306 27.6785 33.9663 28.4022H31.43C31.0109 28.4022 30.6664 28.2859 30.3963 28.0538C30.1256 27.8216 29.9069 27.5264 29.7392 27.1681C29.5714 26.8103 29.4381 26.4273 29.3393 26.0198C29.2404 25.6123 29.1603 25.2259 29.0995 24.8604C29.0382 24.4949 28.9774 24.1939 28.9166 23.9577C28.947 24.4144 28.9394 24.8984 28.8937 25.4088C28.8481 25.9192 28.7354 26.401 28.5569 26.8541C28.3775 27.3072 28.0957 27.6785 27.7115 27.9679C27.3268 28.2578 26.7958 28.4022 26.1177 28.4022C25.6834 28.4022 25.2911 28.345 24.9408 28.2309C24.5901 28.1169 24.2743 27.9567 23.9925 27.751L23.0898 30.973C22.3205 31.6126 21.4258 32.127 20.405 32.5153C19.3843 32.904 18.2378 33.0982 16.9661 33.0982C15.8389 33.0982 14.8413 32.8222 13.9727 32.2697C13.1044 31.7173 12.4549 30.9958 12.0246 30.1047C11.5938 29.2137 11.4516 28.2461 11.5961 27.2025C11.741 26.159 12.2438 25.131 13.104 24.1179C13.9646 23.1051 15.2596 22.2025 16.9885 21.4103C15.8764 22.1796 15.1263 23.1508 14.738 24.3236C14.3493 25.4965 14.3381 26.6009 14.7036 27.6369C15.0006 28.4063 15.5262 29.0133 16.2799 29.4592C17.0341 29.9048 17.8947 30.1351 18.8623 30.1504C20.0579 30.1351 21.0617 29.8744 21.8727 29.3676C22.6841 28.8607 23.3296 28.2765 23.8091 27.6136C23.0854 26.974 22.5866 26.159 22.3124 25.1686L23.101 22.2208C23.1082 22.4494 23.1847 22.733 23.3296 23.072C23.4741 23.4111 23.6798 23.752 23.9464 24.0946C24.213 24.4372 24.5409 24.7271 24.9292 24.9628C25.3179 25.199 25.7634 25.3171 26.2658 25.3171C26.616 25.3171 26.9171 25.2639 27.1684 25.157C27.4198 25.0505 27.6292 24.9096 27.7969 24.7343C27.9647 24.5594 28.1015 24.367 28.2085 24.1572C28.3149 23.9479 28.3986 23.7385 28.4598 23.5287C28.5207 23.3194 28.5663 23.1271 28.5972 22.9517C28.6271 22.7764 28.6522 22.6359 28.6714 22.529C28.6902 22.4225 28.713 22.3671 28.7399 22.3635C28.7667 22.3599 28.8065 22.4225 28.8597 22.5518C28.9206 22.7043 29.0083 22.9289 29.1228 23.2259C29.2368 23.5229 29.3836 23.8298 29.5625 24.1456C29.7414 24.4618 29.9583 24.7361 30.2138 24.9682C30.4687 25.2008 30.764 25.3167 31.099 25.3167H35.0063C34.3054 24.7987 33.3195 24.0105 32.0473 22.9517L33.1898 18.1646C33.243 18.6978 33.5078 19.2538 33.9837 19.8326C34.4597 20.4114 34.9951 20.9943 35.5891 21.5807L35.5883 21.5816Z" fill="#884B50"/>
<path d="M51.8305 21.3212C52.0023 22.274 52.1955 24.4833 51.2249 24.8496C49.9536 25.3291 48.5893 25.5456 47.3185 26.0574C46.2476 26.4881 45.3489 26.9806 44.6221 27.5349C43.8952 28.0891 43.175 28.7677 42.462 29.5697C42.0106 30.0644 41.5172 30.548 40.9823 31.0199C40.4468 31.4923 39.8564 31.915 39.2109 32.2889C38.5654 32.6624 37.8542 32.9447 37.0776 33.1348C36.005 33.3974 35.0325 33.43 34.1607 33.2319C33.2889 33.0337 32.52 32.6709 31.8535 32.144C31.1874 31.617 30.4305 30.947 29.9765 30.1959C29.5221 29.4444 29.37 28.6706 29.1284 27.8126C29.9667 30.5636 31.9675 31.4967 35.1305 30.6124C36.3239 30.234 37.3733 29.6847 38.2791 28.9649C39.1849 28.2452 40.0147 27.4794 40.7689 26.6671C41.5226 25.8552 42.2723 25.1207 43.0171 24.464C43.7619 23.8074 44.5729 23.348 45.4496 23.0859C45.2653 22.2369 45.2886 21.4375 45.5207 20.6865C45.7524 19.9359 46.0682 19.2721 46.4681 18.6959C46.868 18.1198 47.4106 17.5007 48.0955 16.8391C48.7078 17.4497 49.2585 17.9699 49.7478 18.3989C50.2001 18.7952 50.8845 19.1423 51.2602 19.5995C51.5823 19.9913 51.7151 20.7325 51.8109 21.2183C51.8171 21.2505 51.8238 21.285 51.8301 21.3212H51.8305ZM47.8302 22.4798L49.5394 22.0611C49.1784 21.8043 48.8434 21.5574 48.5343 21.319C48.1697 21.0474 47.747 20.8493 47.2652 20.724C46.7835 20.5992 46.3782 20.6158 46.0485 20.775C45.7189 20.9343 45.5905 21.3064 45.6634 21.8929C45.692 22.074 45.7819 22.2324 45.9327 22.3679C46.0834 22.5035 46.3098 22.5871 46.6117 22.6193C46.9137 22.6511 47.3198 22.6046 47.8302 22.4798Z" fill="#884B50"/>
<path d="M50.7997 26.2233L51.756 27.1887C49.6004 27.2021 47.2395 28.3454 44.2456 31.1644L43.771 30.3753C45.6806 28.0685 48.0813 26.8075 50.7997 26.2229V26.2233Z" fill="#331D1F"/>
<path d="M37.8255 12C38.9563 14.5604 39.5732 16.9782 39.6752 19.2537C39.7771 21.5287 39.5074 23.5363 38.8655 25.2754C38.2232 27.0146 37.3585 28.3507 36.2706 29.2838C36.96 28.102 38.0076 24.3665 37.944 22.982C37.8805 21.5976 37.6309 20.2767 37.1961 19.0202C36.7613 17.7637 36.3923 16.3367 35.5044 14.7063L37.8251 12H37.8255Z" fill="#331D1F"/>
<path d="M20.7542 22.3188C21.0919 22.5675 21.3107 22.9428 21.4104 23.4447C21.5097 23.9465 21.4699 24.4211 21.291 24.8685C21.0226 25.3457 20.6348 25.5743 20.128 25.5542C19.6211 25.5345 19.2781 25.271 19.0991 24.7638C18.9699 25.0125 18.7762 25.2259 18.5176 25.4048C18.2591 25.5837 17.9012 25.6732 17.4441 25.6732C16.9869 25.6732 16.7033 25.509 16.5342 25.1811C16.4448 25.012 16.3951 24.8233 16.3853 24.6144C16.3651 24.0776 16.4993 23.5806 16.7879 23.123C16.7082 23.501 16.6984 23.7891 16.7579 23.9881C16.8174 24.1872 16.9118 24.3187 17.041 24.3831C17.1703 24.448 17.2947 24.4802 17.4141 24.4802C17.7916 24.4802 18.0873 24.4203 18.3011 24.3013C18.5149 24.1818 18.6715 24.028 18.7708 23.8392C18.8701 23.6504 18.935 23.4514 18.9645 23.2425L19.397 23.4214C19.3769 23.849 19.3228 24.202 19.2329 24.4802H21.2758C20.8383 24.0127 20.3905 23.6451 19.9334 23.3767L20.7537 22.3179L20.7542 22.3188Z" fill="#331D1F"/>
<path d="M5.46138 45.7534L6.47141 43.4824H6.9232V46.9223H6.45263V44.3462L6.47633 44.4974L5.62957 46.4445H5.29363L4.44687 44.5448L4.47057 44.3462V46.9223H4V43.4824H4.45179L5.46182 45.7534H5.46138Z" fill="#331D1F"/>
<path d="M8.73249 46.9575C8.39029 46.9575 8.12548 46.8623 7.93761 46.6713C7.74974 46.4803 7.65625 46.2092 7.65625 45.8576V45.5807C7.65625 45.2148 7.74661 44.9317 7.92732 44.7313C8.10804 44.5309 8.36211 44.4307 8.69044 44.4307C8.99954 44.4307 9.23885 44.5443 9.40838 44.7715C9.57791 44.9988 9.6629 45.3172 9.6629 45.7274V45.8885H8.00694V45.5006H9.20396C9.18965 45.302 9.1382 45.1464 9.04919 45.0345C8.96017 44.9227 8.84074 44.8668 8.69089 44.8668C8.50928 44.8668 8.36838 44.9267 8.26728 45.0466C8.16619 45.1665 8.11609 45.336 8.11609 45.5552V45.8674C8.11609 46.071 8.17021 46.2271 8.27802 46.3358C8.38582 46.4445 8.53791 46.499 8.73338 46.499C8.83135 46.499 8.92797 46.4794 9.02459 46.44C9.12076 46.4006 9.20664 46.3452 9.28224 46.2745L9.59939 46.5916C9.47772 46.7084 9.34173 46.7987 9.19009 46.8627C9.03845 46.9267 8.88637 46.9584 8.73338 46.9584L8.73249 46.9575Z" fill="#331D1F"/>
<path d="M10.3242 46.9222V44.4665H10.8069V46.9222H10.3242ZM11.6751 45.0484C11.6326 44.9965 11.5789 44.9572 11.5141 44.9303C11.4492 44.9035 11.3745 44.8901 11.2895 44.8901C11.1365 44.8901 11.018 44.9321 10.9335 45.0166C10.8489 45.1012 10.8069 45.2179 10.8069 45.3678L10.7572 44.8945C10.8315 44.7496 10.9285 44.636 11.0493 44.5537C11.1701 44.4718 11.3029 44.4307 11.4479 44.4307C11.5597 44.4307 11.6612 44.4468 11.752 44.479C11.8429 44.5112 11.922 44.559 11.99 44.6221L11.6756 45.048L11.6751 45.0484Z" fill="#331D1F"/>
<path d="M13.178 46.9576C12.8765 46.9576 12.6506 46.8954 12.5003 46.7706C12.3496 46.6458 12.2744 46.4553 12.2744 46.1981C12.2744 45.9409 12.3433 45.7709 12.4815 45.6506C12.6193 45.5298 12.8264 45.4694 13.1024 45.4694H13.8002L13.8333 45.8572H13.1046C12.9798 45.8572 12.8863 45.8854 12.8233 45.9413C12.7602 45.9972 12.7284 46.0831 12.7284 46.1981C12.7284 46.3229 12.77 46.415 12.8537 46.475C12.9373 46.5349 13.0626 46.5649 13.2299 46.5649C13.4128 46.5649 13.5502 46.5452 13.6414 46.5058C13.7327 46.4665 13.7787 46.4047 13.7787 46.3215L13.8284 46.6669C13.7859 46.7331 13.7331 46.7876 13.67 46.8301C13.607 46.8726 13.5349 46.9048 13.4535 46.9259C13.3721 46.9473 13.2804 46.9576 13.178 46.9576ZM13.7787 46.9223V45.3656C13.7787 45.2046 13.7358 45.0798 13.6499 44.9908C13.564 44.9018 13.4419 44.857 13.2845 44.857C13.1883 44.857 13.093 44.8718 12.9995 44.9009C12.9056 44.9299 12.8215 44.9724 12.7477 45.0275L12.3952 44.7864C12.4882 44.6745 12.6108 44.5873 12.7629 44.5251C12.915 44.463 13.0841 44.4316 13.2701 44.4316C13.5779 44.4316 13.8159 44.5113 13.9845 44.6705C14.1531 44.8297 14.2377 45.0547 14.2377 45.3446V46.9227H13.7787V46.9223Z" fill="#331D1F"/>
<path d="M15.8395 46.9575C15.6217 46.9575 15.4244 46.9258 15.2469 46.8618C15.0693 46.7979 14.9105 46.7021 14.77 46.5742L15.0563 46.2217C15.1905 46.3228 15.3225 46.3984 15.4526 46.4489C15.5828 46.4995 15.7116 46.5245 15.8395 46.5245C16.0306 46.5245 16.1737 46.495 16.269 46.436C16.3642 46.3769 16.4121 46.2879 16.4121 46.1698C16.4121 46.0786 16.3804 46.0137 16.3164 45.9757C16.2524 45.9377 16.1688 45.9131 16.0654 45.901C15.9621 45.8894 15.8512 45.8795 15.7331 45.8715C15.6338 45.8634 15.5354 45.8513 15.4374 45.8348C15.3395 45.8182 15.2504 45.7883 15.1699 45.7449C15.0894 45.7015 15.025 45.6371 14.9771 45.5521C14.9288 45.4671 14.9051 45.3526 14.9051 45.209C14.9051 44.9487 14.9847 44.7541 15.144 44.6248C15.3032 44.4955 15.5407 44.4307 15.8561 44.4307C16.0484 44.4307 16.2274 44.4566 16.3929 44.5089C16.5584 44.5608 16.7136 44.6405 16.859 44.7478L16.5682 45.1003C16.4452 45.0216 16.324 44.9625 16.205 44.9227C16.086 44.8833 15.9697 44.8637 15.8561 44.8637C15.6919 44.8637 15.5689 44.8918 15.4871 44.9478C15.4052 45.0037 15.3641 45.0878 15.3641 45.1996C15.3641 45.2738 15.3922 45.3271 15.449 45.3593C15.5059 45.3915 15.5806 45.4125 15.6736 45.4219C15.7666 45.4313 15.8668 45.4403 15.9742 45.4479C16.0766 45.4541 16.1804 45.4658 16.2855 45.4823C16.3902 45.4989 16.4868 45.5306 16.5754 45.578C16.6639 45.6254 16.7346 45.6957 16.7883 45.7887C16.842 45.8818 16.8688 46.0088 16.8688 46.1694C16.8688 46.4328 16.7834 46.6301 16.6121 46.7607C16.4407 46.8918 16.1835 46.9571 15.8395 46.9571V46.9575Z" fill="#331D1F"/>
<path d="M18.832 46.9225V43.4826H19.3124V46.9225H18.832ZM19.1156 46.9225V46.4752H20.0478C20.3033 46.4752 20.4844 46.4264 20.5909 46.3284C20.6973 46.2305 20.7506 46.1021 20.7506 45.9429V45.9357C20.7506 45.7653 20.7054 45.6293 20.6146 45.5277C20.5238 45.4262 20.3744 45.3752 20.1664 45.3752H19.1161V44.94H20.1664C20.3444 44.94 20.479 44.8979 20.5699 44.8134C20.6607 44.7288 20.7058 44.6054 20.7058 44.443C20.7058 44.2712 20.6553 44.1424 20.5546 44.0574C20.4535 43.9724 20.3024 43.9295 20.1006 43.9295H19.1165V43.4822H20.1883C20.5274 43.4822 20.7796 43.5667 20.9451 43.7354C21.1107 43.904 21.1934 44.1303 21.1934 44.4144C21.1934 44.5861 21.1429 44.7436 21.0422 44.8863C20.9411 45.029 20.7828 45.1202 20.5667 45.1596C20.7796 45.1914 20.9447 45.2849 21.0623 45.441C21.18 45.5971 21.2386 45.776 21.2386 45.9782V45.9853C21.2386 46.2663 21.1478 46.4926 20.9666 46.6644C20.7855 46.8361 20.5394 46.922 20.2285 46.922H19.1165L19.1156 46.9225Z" fill="#331D1F"/>
<path d="M22.3948 44.4666V45.9592C22.3948 46.131 22.4386 46.2639 22.5263 46.3578C22.6139 46.4517 22.737 46.4987 22.8966 46.4987C23.0563 46.4987 23.1785 46.4567 23.2643 46.3721C23.3502 46.2876 23.3932 46.169 23.3932 46.016L23.4263 46.5296C23.382 46.6401 23.305 46.7389 23.1946 46.8266C23.0841 46.9143 22.94 46.9576 22.7616 46.9576C22.4905 46.9576 22.2807 46.8704 22.1335 46.6964C21.9859 46.522 21.9121 46.2764 21.9121 45.9597V44.467H22.3948V44.4666ZM23.3932 46.9223V44.4666H23.8736V46.9223H23.3932Z" fill="#331D1F"/>
<path d="M25.4748 46.9575C25.257 46.9575 25.0597 46.9258 24.8821 46.8618C24.7045 46.7979 24.5457 46.7021 24.4053 46.5742L24.6916 46.2217C24.8258 46.3228 24.9577 46.3984 25.0879 46.4489C25.218 46.4995 25.3469 46.5245 25.4748 46.5245C25.6658 46.5245 25.8089 46.495 25.9042 46.436C25.9995 46.3769 26.0474 46.2879 26.0474 46.1698C26.0474 46.0786 26.0156 46.0137 25.9516 45.9757C25.8877 45.9377 25.804 45.9131 25.7007 45.901C25.5974 45.8894 25.4864 45.8795 25.3683 45.8715C25.269 45.8634 25.1706 45.8513 25.0727 45.8348C24.9747 45.8182 24.8857 45.7883 24.8052 45.7449C24.7247 45.7015 24.6602 45.6371 24.6124 45.5521C24.5641 45.4671 24.5404 45.3526 24.5404 45.209C24.5404 44.9487 24.62 44.7541 24.7792 44.6248C24.9385 44.4955 25.176 44.4307 25.4914 44.4307C25.6837 44.4307 25.8626 44.4566 26.0281 44.5089C26.1936 44.5608 26.3489 44.6405 26.4942 44.7478L26.2035 45.1003C26.0805 45.0216 25.9592 44.9625 25.8403 44.9227C25.7213 44.8833 25.605 44.8637 25.4914 44.8637C25.3272 44.8637 25.2042 44.8918 25.1223 44.9478C25.0405 45.0037 24.9993 45.0878 24.9993 45.1996C24.9993 45.2738 25.0275 45.3271 25.0843 45.3593C25.1411 45.3915 25.2158 45.4125 25.3088 45.4219C25.4019 45.4313 25.5021 45.4403 25.6094 45.4479C25.7119 45.4541 25.8157 45.4658 25.9208 45.4823C26.0254 45.4989 26.1221 45.5306 26.2106 45.578C26.2992 45.6254 26.3699 45.6957 26.4236 45.7887C26.4772 45.8818 26.5041 46.0088 26.5041 46.1694C26.5041 46.4328 26.4186 46.6301 26.2473 46.7607C26.076 46.8918 25.8188 46.9571 25.4748 46.9571V46.9575Z" fill="#331D1F"/>
<path d="M27.1191 43.9651V43.4824H27.6018V43.9651H27.1191ZM27.1191 46.9223V44.4665H27.6018V46.9223H27.1191Z" fill="#331D1F"/>
<path d="M28.3354 46.9222V44.4665H28.8181V46.9222H28.3354ZM29.8259 46.9222V45.434C29.8259 45.2604 29.7812 45.1262 29.6922 45.0319C29.6031 44.937 29.4766 44.8901 29.3124 44.8901C29.1482 44.8901 29.0328 44.9317 28.9469 45.0153C28.861 45.0989 28.8181 45.2166 28.8181 45.3678L28.7685 44.8945C28.844 44.7465 28.9429 44.632 29.0655 44.5514C29.1876 44.4709 29.3231 44.4307 29.4712 44.4307C29.7378 44.4307 29.944 44.5179 30.0898 44.6919C30.2356 44.8663 30.3086 45.1128 30.3086 45.4313V46.9218H29.8259V46.9222Z" fill="#331D1F"/>
<path d="M32.0469 46.9575C31.7047 46.9575 31.4399 46.8623 31.2521 46.6713C31.0642 46.4803 30.9707 46.2092 30.9707 45.8576V45.5807C30.9707 45.2148 31.0611 44.9317 31.2418 44.7313C31.4225 44.5309 31.6766 44.4307 32.0049 44.4307C32.314 44.4307 32.5533 44.5443 32.7228 44.7715C32.8924 44.9988 32.9774 45.3172 32.9774 45.7274V45.8885H31.3214V45.5006H32.5184C32.5041 45.302 32.4527 45.1464 32.3636 45.0345C32.2746 44.9227 32.1552 44.8668 32.0053 44.8668C31.8237 44.8668 31.6828 44.9267 31.5817 45.0466C31.4806 45.1665 31.4305 45.336 31.4305 45.5552V45.8674C31.4305 46.071 31.4847 46.2271 31.5925 46.3358C31.7003 46.4445 31.8524 46.499 32.0478 46.499C32.1458 46.499 32.2424 46.4794 32.339 46.44C32.4352 46.4006 32.5211 46.3452 32.5967 46.2745L32.9138 46.5916C32.7922 46.7084 32.6562 46.7987 32.5045 46.8627C32.3529 46.9267 32.2008 46.9584 32.0478 46.9584L32.0469 46.9575Z" fill="#331D1F"/>
<path d="M34.5075 46.9575C34.2897 46.9575 34.0924 46.9258 33.9148 46.8618C33.7372 46.7979 33.5784 46.7021 33.438 46.5742L33.7243 46.2217C33.8585 46.3228 33.9904 46.3984 34.1206 46.4489C34.2508 46.4995 34.3796 46.5245 34.5075 46.5245C34.6985 46.5245 34.8417 46.495 34.9369 46.436C35.0322 46.3769 35.0801 46.2879 35.0801 46.1698C35.0801 46.0786 35.0483 46.0137 34.9844 45.9757C34.9204 45.9377 34.8367 45.9131 34.7334 45.901C34.6301 45.8894 34.5191 45.8795 34.4011 45.8715C34.3018 45.8634 34.2033 45.8513 34.1054 45.8348C34.0074 45.8182 33.9184 45.7883 33.8379 45.7449C33.7574 45.7015 33.693 45.6371 33.6451 45.5521C33.5968 45.4671 33.5731 45.3526 33.5731 45.209C33.5731 44.9487 33.6527 44.7541 33.8119 44.6248C33.9712 44.4955 34.2087 44.4307 34.5241 44.4307C34.7164 44.4307 34.8953 44.4566 35.0608 44.5089C35.2264 44.5608 35.3816 44.6405 35.5269 44.7478L35.2362 45.1003C35.1132 45.0216 34.992 44.9625 34.873 44.9227C34.754 44.8833 34.6377 44.8637 34.5241 44.8637C34.3599 44.8637 34.2369 44.8918 34.155 44.9478C34.0732 45.0037 34.032 45.0878 34.032 45.1996C34.032 45.2738 34.0602 45.3271 34.117 45.3593C34.1738 45.3915 34.2485 45.4125 34.3416 45.4219C34.4346 45.4313 34.5348 45.4403 34.6422 45.4479C34.7446 45.4541 34.8484 45.4658 34.9535 45.4823C35.0582 45.4989 35.1548 45.5306 35.2434 45.578C35.3319 45.6254 35.4026 45.6957 35.4563 45.7887C35.51 45.8818 35.5368 46.0088 35.5368 46.1694C35.5368 46.4328 35.4514 46.6301 35.28 46.7607C35.1087 46.8918 34.8515 46.9571 34.5075 46.9571V46.9575Z" fill="#331D1F"/>
<path d="M37.0197 46.9575C36.8019 46.9575 36.6046 46.9258 36.427 46.8618C36.2495 46.7979 36.0907 46.7021 35.9502 46.5742L36.2365 46.2217C36.3707 46.3228 36.5026 46.3984 36.6328 46.4489C36.763 46.4995 36.8918 46.5245 37.0197 46.5245C37.2107 46.5245 37.3539 46.495 37.4491 46.436C37.5444 46.3769 37.5923 46.2879 37.5923 46.1698C37.5923 46.0786 37.5605 46.0137 37.4966 45.9757C37.4326 45.9377 37.3489 45.9131 37.2456 45.901C37.1423 45.8894 37.0314 45.8795 36.9133 45.8715C36.814 45.8634 36.7155 45.8513 36.6176 45.8348C36.5196 45.8182 36.4306 45.7883 36.3501 45.7449C36.2696 45.7015 36.2052 45.6371 36.1573 45.5521C36.109 45.4671 36.0853 45.3526 36.0853 45.209C36.0853 44.9487 36.1649 44.7541 36.3241 44.6248C36.4834 44.4955 36.7209 44.4307 37.0363 44.4307C37.2286 44.4307 37.4075 44.4566 37.5731 44.5089C37.7386 44.5608 37.8938 44.6405 38.0392 44.7478L37.7484 45.1003C37.6254 45.0216 37.5042 44.9625 37.3852 44.9227C37.2662 44.8833 37.1499 44.8637 37.0363 44.8637C36.8721 44.8637 36.7491 44.8918 36.6672 44.9478C36.5854 45.0037 36.5442 45.0878 36.5442 45.1996C36.5442 45.2738 36.5724 45.3271 36.6292 45.3593C36.686 45.3915 36.7607 45.4125 36.8538 45.4219C36.9468 45.4313 37.047 45.4403 37.1544 45.4479C37.2568 45.4541 37.3606 45.4658 37.4657 45.4823C37.5704 45.4989 37.667 45.5306 37.7556 45.578C37.8441 45.6254 37.9148 45.6957 37.9685 45.7887C38.0222 45.8818 38.049 46.0088 38.049 46.1694C38.049 46.4328 37.9636 46.6301 37.7922 46.7607C37.6209 46.8918 37.3637 46.9571 37.0197 46.9571V46.9575Z" fill="#331D1F"/>
<path d="M41.046 46.9577C40.8787 46.9577 40.7217 46.9421 40.5741 46.9103C40.4265 46.8785 40.2887 46.8316 40.1603 46.7685C40.0319 46.7054 39.9116 46.6267 39.7993 46.5319L40.0999 46.1628C40.231 46.2764 40.375 46.3614 40.5329 46.4182C40.6904 46.4751 40.8617 46.5032 41.0464 46.5032C41.2956 46.5032 41.4888 46.4567 41.6262 46.3637C41.7635 46.2706 41.8319 46.1405 41.8319 45.9732V45.9709C41.8319 45.8399 41.797 45.7397 41.7277 45.6703C41.6584 45.601 41.5671 45.5491 41.4544 45.5156C41.3417 45.4816 41.2182 45.4538 41.084 45.4315C40.9547 45.4096 40.8241 45.3836 40.6926 45.3532C40.5611 45.3232 40.4399 45.2763 40.3294 45.2123C40.2189 45.1483 40.1303 45.0566 40.0632 44.9367C39.9961 44.8169 39.9626 44.6567 39.9626 44.4563V44.4541C39.9626 44.1338 40.069 43.886 40.282 43.7102C40.4949 43.5344 40.7955 43.4463 41.1833 43.4463C41.3676 43.4463 41.5483 43.4758 41.725 43.5349C41.9017 43.5939 42.0735 43.6843 42.2408 43.8059L41.9666 44.1893C41.8355 44.0913 41.7053 44.0189 41.5752 43.9714C41.445 43.924 41.3144 43.9003 41.1838 43.9003C40.9489 43.9003 40.7664 43.9473 40.6362 44.0412C40.5061 44.1352 40.4412 44.268 40.4412 44.4398V44.442C40.4412 44.5713 40.4792 44.6701 40.5548 44.7377C40.6304 44.8052 40.7293 44.8558 40.8518 44.888C40.974 44.9202 41.1055 44.9506 41.2459 44.9792C41.3721 45.0043 41.4982 45.0347 41.6244 45.0705C41.7505 45.1058 41.865 45.1573 41.9683 45.2244C42.0717 45.2915 42.1544 45.3832 42.2166 45.4999C42.2788 45.6167 42.3101 45.7687 42.3101 45.9566V45.9615C42.3101 46.2787 42.1996 46.5238 41.9791 46.6974C41.7581 46.8709 41.4477 46.9577 41.0469 46.9577H41.046Z" fill="#331D1F"/>
<path d="M43.8897 46.9575C43.5681 46.9575 43.3189 46.8641 43.1422 46.6771C42.9656 46.4901 42.8774 46.2271 42.8774 45.888V45.4881C42.8774 45.1522 42.9656 44.8918 43.1422 44.7075C43.3189 44.5228 43.5681 44.4307 43.8897 44.4307C44.2113 44.4307 44.4605 44.5228 44.6372 44.7075C44.8139 44.8918 44.902 45.1522 44.902 45.4881V45.8952C44.902 46.2329 44.8139 46.4941 44.6372 46.6793C44.4605 46.8645 44.2113 46.9571 43.8897 46.9571V46.9575ZM43.8897 46.4986C44.0584 46.4986 44.189 46.4458 44.2811 46.3402C44.3733 46.2347 44.4193 46.0862 44.4193 45.8956V45.4886C44.4193 45.2976 44.3733 45.1504 44.2811 45.0462C44.189 44.9419 44.0584 44.8901 43.8897 44.8901C43.7211 44.8901 43.5923 44.9419 43.4992 45.0462C43.4062 45.1504 43.3596 45.2976 43.3596 45.4886V45.8956C43.3596 46.0866 43.4062 46.2347 43.4992 46.3402C43.5923 46.4458 43.7224 46.4986 43.8897 46.4986Z" fill="#331D1F"/>
<path d="M46.0705 43.4826V46.2882C46.0705 46.3463 46.0835 46.3924 46.1095 46.4255C46.1354 46.4586 46.1721 46.4752 46.2195 46.4752H46.4467V46.9341H46.1627C45.9815 46.9341 45.8402 46.8773 45.7391 46.7637C45.638 46.6501 45.5879 46.4899 45.5879 46.2833V43.4822H46.0705V43.4826Z" fill="#331D1F"/>
<path d="M47.4504 44.4666V45.9592C47.4504 46.131 47.4943 46.2639 47.5819 46.3578C47.6696 46.4517 47.7926 46.4987 47.9523 46.4987C48.112 46.4987 48.2341 46.4567 48.32 46.3721C48.4059 46.2876 48.4488 46.169 48.4488 46.016L48.4819 46.5296C48.4377 46.6401 48.3607 46.7389 48.2502 46.8266C48.1397 46.9143 47.9957 46.9576 47.8172 46.9576C47.5462 46.9576 47.3364 46.8704 47.1892 46.6964C47.0416 46.522 46.9678 46.2764 46.9678 45.9597V44.467H47.4504V44.4666ZM48.4488 46.9223V44.4666H48.9293V46.9223H48.4488Z" fill="#331D1F"/>
<path d="M49.4727 44.9018V44.4666H50.5798V44.9018H49.4727ZM50.3006 46.9339C50.0989 46.9339 49.9526 46.878 49.8618 46.7662C49.771 46.6544 49.7258 46.4933 49.7258 46.2836V43.7522H50.2085V46.2885C50.2085 46.3466 50.2201 46.3927 50.2438 46.4258C50.2675 46.4589 50.302 46.4754 50.3481 46.4754H50.5798V46.9344H50.3006V46.9339Z" fill="#331D1F"/>
<path d="M51.2422 43.9651V43.4824H51.7248V43.9651H51.2422ZM51.2422 46.9223V44.4665H51.7248V46.9223H51.2422Z" fill="#331D1F"/>
<path d="M53.4 46.9575C53.0783 46.9575 52.8292 46.8641 52.6525 46.6771C52.4758 46.4901 52.3877 46.2271 52.3877 45.888V45.4881C52.3877 45.1522 52.4758 44.8918 52.6525 44.7075C52.8292 44.5228 53.0783 44.4307 53.4 44.4307C53.7216 44.4307 53.9707 44.5228 54.1474 44.7075C54.3241 44.8918 54.4122 45.1522 54.4122 45.4881V45.8952C54.4122 46.2329 54.3241 46.4941 54.1474 46.6793C53.9707 46.8645 53.7216 46.9571 53.4 46.9571V46.9575ZM53.4 46.4986C53.5686 46.4986 53.6992 46.4458 53.7914 46.3402C53.8835 46.2347 53.9296 46.0862 53.9296 45.8956V45.4886C53.9296 45.2976 53.8835 45.1504 53.7914 45.0462C53.6992 44.9419 53.5686 44.8901 53.4 44.8901C53.2313 44.8901 53.1025 44.9419 53.0095 45.0462C52.9164 45.1504 52.8699 45.2976 52.8699 45.4886V45.8956C52.8699 46.0866 52.9164 46.2347 53.0095 46.3402C53.1025 46.4458 53.2327 46.4986 53.4 46.4986Z" fill="#331D1F"/>
<path d="M55.0991 46.9222V44.4665H55.5818V46.9222H55.0991ZM56.5891 46.9222V45.434C56.5891 45.2604 56.5444 45.1262 56.4554 45.0319C56.3664 44.937 56.2398 44.8901 56.0756 44.8901C55.9114 44.8901 55.796 44.9317 55.7102 45.0153C55.6243 45.0989 55.5813 45.2166 55.5813 45.3678L55.5317 44.8945C55.6073 44.7465 55.7061 44.632 55.8287 44.5514C55.9508 44.4709 56.0863 44.4307 56.2344 44.4307C56.501 44.4307 56.7072 44.5179 56.853 44.6919C56.9989 44.8663 57.0718 45.1128 57.0718 45.4313V46.9218H56.5891V46.9222Z" fill="#331D1F"/>
<path d="M58.6735 46.9575C58.4557 46.9575 58.2584 46.9258 58.0808 46.8618C57.9033 46.7979 57.7445 46.7021 57.604 46.5742L57.8903 46.2217C58.0245 46.3228 58.1564 46.3984 58.2866 46.4489C58.4168 46.4995 58.5456 46.5245 58.6735 46.5245C58.8645 46.5245 59.0077 46.495 59.103 46.436C59.1982 46.3769 59.2461 46.2879 59.2461 46.1698C59.2461 46.0786 59.2143 46.0137 59.1504 45.9757C59.0864 45.9377 59.0028 45.9131 58.8994 45.901C58.7961 45.8894 58.6852 45.8795 58.5671 45.8715C58.4678 45.8634 58.3694 45.8513 58.2714 45.8348C58.1734 45.8182 58.0844 45.7883 58.0039 45.7449C57.9234 45.7015 57.859 45.6371 57.8111 45.5521C57.7628 45.4671 57.7391 45.3526 57.7391 45.209C57.7391 44.9487 57.8187 44.7541 57.978 44.6248C58.1372 44.4955 58.3747 44.4307 58.6901 44.4307C58.8824 44.4307 59.0614 44.4566 59.2269 44.5089C59.3924 44.5608 59.5476 44.6405 59.693 44.7478L59.4022 45.1003C59.2792 45.0216 59.158 44.9625 59.039 44.9227C58.92 44.8833 58.8037 44.8637 58.6901 44.8637C58.5259 44.8637 58.4029 44.8918 58.3211 44.9478C58.2392 45.0037 58.198 45.0878 58.198 45.1996C58.198 45.2738 58.2262 45.3271 58.283 45.3593C58.3398 45.3915 58.4145 45.4125 58.5076 45.4219C58.6006 45.4313 58.7008 45.4403 58.8082 45.4479C58.9106 45.4541 59.0144 45.4658 59.1195 45.4823C59.2242 45.4989 59.3208 45.5306 59.4094 45.578C59.4979 45.6254 59.5686 45.6957 59.6223 45.7887C59.676 45.8818 59.7028 46.0088 59.7028 46.1694C59.7028 46.4328 59.6174 46.6301 59.446 46.7607C59.2747 46.8918 59.0175 46.9571 58.6735 46.9571V46.9575Z" fill="#331D1F"/>
<path d="M6.70126 36.3535L7.20583 36.3374L7.23849 36.8424L7.21389 37.2902L7.22999 37.7867V38.251L7.22194 38.7556L7.22999 39.1872V39.7003L7.21389 40.1807C7.21389 40.3762 7.19778 40.5144 7.17318 40.6853C7.01036 41.125 6.85559 41.5321 6.39172 41.7436C6.2535 41.817 6.12288 41.8412 5.96006 41.9065C5.81334 41.9552 5.68317 41.9633 5.47965 41.9798C5.1701 41.9637 4.82836 41.8984 4.57607 41.7195C4.45395 41.6381 4.38865 41.5406 4.29113 41.4592C4.18512 41.3124 4.1122 41.1903 4.0715 41.0441C4.03079 40.9139 4.0554 40.743 4.0469 40.5475C4.03885 40.3279 4.05495 40.1566 4.10371 39.9696C4.15246 39.7907 4.20972 39.6113 4.28263 39.4646C4.32334 39.3586 4.38015 39.2203 4.40475 39.1143L4.76305 39.2203L4.60828 39.7088L4.49421 40.1973C4.51032 40.5963 4.61633 40.8325 4.93392 41.0682C5.11285 41.1742 5.30832 41.1984 5.5284 41.1984C5.95156 41.1823 6.32641 41.1496 6.69276 40.9134L6.66011 39.9772L6.66816 39.5375L6.66011 39.0651V37.7379L6.68471 37.2575L6.66011 36.8344L6.67621 36.354H6.70082L6.70126 36.3535Z" fill="#331D1F"/>
<path d="M8.59862 39.2929C8.59862 39.521 8.62322 39.7733 8.72878 39.8467C8.867 39.9442 9.09514 39.9442 9.25796 39.9361V40.5387L9.02983 40.6688C8.89966 40.6688 8.79365 40.6688 8.70418 40.6527C8.41119 40.6201 8.19111 40.319 8.12625 40.0502C8.07749 39.8713 8.06944 39.6678 8.06094 39.5291V39.4316L8.07705 39.0572L8.05244 38.6175V38.5199L8.06855 38.1375L8.04395 37.6978L8.06005 36.7942L8.04395 36.3625L8.61382 36.3706L8.58117 36.8345L8.61382 37.331V38.3567L8.62188 38.8697C8.62188 38.9351 8.59727 39.1059 8.59727 39.2929H8.59862Z" fill="#331D1F"/>
<path d="M10.3891 39.936V40.441C10.3891 40.5793 10.2831 40.6692 10.161 40.6692H9.0293V40.1646C9.0293 40.0179 9.14336 39.9365 9.25743 39.9365H10.3891V39.936Z" fill="#331D1F"/>
<path d="M11.5205 39.936V40.441C11.5205 40.5793 11.4145 40.6692 11.2924 40.6692H10.1606V40.1646C10.1606 40.0179 10.2747 39.9365 10.3888 39.9365H11.5205V39.936Z" fill="#331D1F"/>
<path d="M12.6523 39.936V40.441C12.6523 40.5793 12.5463 40.6692 12.4242 40.6692H11.2925V40.1646C11.2925 40.0179 11.4065 39.9365 11.5206 39.9365H12.6523V39.936Z" fill="#331D1F"/>
<path d="M13.1656 39.8874C13.1575 39.8628 13.1575 39.8386 13.1575 39.814C13.1495 39.6512 13.1656 39.4803 13.1902 39.3824C13.2309 39.2276 13.2877 39.0894 13.3691 38.9427C13.4424 38.8206 13.5646 38.7472 13.6621 38.6577C13.7681 38.5844 13.8817 38.4542 14.0204 38.4135C14.1913 38.3567 14.3214 38.3889 14.4842 38.3647L14.8586 38.3728C14.932 38.7311 15.0461 39.0894 15.1597 39.4392C15.2165 39.5533 15.3471 39.708 15.4285 39.7729C15.5506 39.9031 15.7054 39.9438 15.8602 39.9357V40.4895L15.6321 40.6684C15.5019 40.6684 15.3391 40.6438 15.2657 40.5709C15.225 40.5463 15.1923 40.5221 15.1516 40.4895L14.9727 40.9126L14.3867 40.7579C14.2727 40.7172 13.9144 40.5951 13.8495 40.5705C13.5892 40.4729 13.4178 40.3915 13.3123 40.2775C13.2962 40.2529 13.2796 40.2287 13.2635 40.2122C13.2309 40.3182 13.1575 40.4237 13.0434 40.5217C12.8153 40.6438 12.6118 40.6684 12.4248 40.6684V40.1473L12.6529 39.9357C12.8891 39.9357 13.0439 39.9196 13.166 39.887L13.1656 39.8874ZM13.7681 39.0728C13.6706 39.2437 13.5892 39.4799 13.5485 39.594C13.5485 39.708 13.6379 39.7407 13.7681 39.7975L14.2239 39.993L14.737 40.1477L14.9325 40.2211C14.8998 40.1558 14.8671 40.0829 14.8264 40.0015C14.737 39.8548 14.6717 39.6839 14.6149 39.5537C14.5415 39.3748 14.4681 39.1793 14.3867 38.9999C14.2239 39.008 13.9551 39.0406 13.7681 39.0733V39.0728Z" fill="#331D1F"/>
<path d="M16.9922 39.936V40.441C16.9922 40.5793 16.8861 40.6692 16.764 40.6692H15.6323V40.1646C15.6323 40.0179 15.7464 39.9365 15.8605 39.9365H16.9922V39.936Z" fill="#331D1F"/>
<path d="M18.7421 38.7476C18.5632 38.6743 18.4084 38.6662 18.2291 38.6416C18.1231 38.6416 17.9115 38.6662 17.814 38.715C17.6919 38.829 17.5858 38.9753 17.5858 39.0974C17.5858 39.3578 17.6999 39.415 17.8869 39.5698C17.9763 39.6351 18.0985 39.7407 18.2452 39.8221C18.6849 39.8221 19.1734 39.7568 19.605 39.7L19.6457 39.8467L19.6784 40.2618C19.4995 40.2945 19.3688 40.3513 19.1899 40.392C19.0678 40.4246 18.9376 40.4488 18.8075 40.4653C18.6934 40.4814 18.5793 40.5141 18.4657 40.5387L18.1969 40.5874C18.0586 40.5874 17.9039 40.6281 17.7652 40.6443C17.6185 40.6443 17.4722 40.6523 17.3255 40.6689H16.7637V40.0422L16.9918 39.9362C17.2034 39.9281 17.3174 39.9442 17.4642 39.9281C17.3501 39.7653 17.228 39.4235 17.236 39.2607C17.236 39.0733 17.4069 38.5768 17.529 38.4385C17.7894 38.129 18.0663 38.0154 18.4653 38.0154C18.6281 38.0154 18.7663 38.048 18.8969 38.1375C19.019 38.1943 19.1412 38.2923 19.2387 38.4224C19.312 38.4958 19.3608 38.5933 19.4095 38.6828L19.1085 39.0245C18.9537 38.8944 18.8397 38.829 18.7421 38.7476Z" fill="#331D1F"/>
<path d="M22.5113 39.594C22.4706 39.8056 22.4706 39.895 22.3973 40.0498C22.3646 40.1066 22.3405 40.1639 22.3078 40.2126C22.2591 40.294 22.2018 40.3593 22.1204 40.4081L22.0229 40.4568C21.9008 40.5222 21.7786 40.587 21.6319 40.6116C21.5259 40.6362 21.4038 40.6523 21.2736 40.6604C21.2083 40.6684 21.1354 40.6684 21.054 40.6604C20.9972 40.6523 20.8505 40.6604 20.7123 40.6604H20.574C20.4032 40.6523 20.1831 40.5951 20.1263 40.5709L20.1996 39.9357C20.3544 39.9438 20.5172 39.9518 20.672 39.9518C20.8187 39.9518 20.965 39.9272 21.1037 39.9272H21.169C21.5514 39.9353 21.7549 39.9353 21.9097 39.8785C22.0479 39.8217 22.1213 39.7725 22.1947 39.6995C22.162 39.5528 22.0564 39.2518 21.9665 39.1297C21.9585 39.1136 21.9504 39.097 21.9339 39.089C21.8851 39.0402 21.8444 38.9668 21.7956 38.91L21.7469 38.8613C21.3886 38.5437 21.0142 38.2753 20.5991 38.0306C20.3302 37.8678 20.0619 37.6723 19.8096 37.4853L20.0292 36.8667C20.184 36.9562 20.3302 37.0702 20.485 37.1923C20.6152 37.2818 20.7454 37.3713 20.884 37.4527C21.0388 37.5421 21.1444 37.6482 21.2991 37.7537C21.4132 37.8271 21.4946 37.9004 21.5921 37.9734C21.6248 38.006 21.6655 38.0302 21.6981 38.0548C21.7549 38.1035 21.8283 38.1608 21.8936 38.2256C21.9343 38.2744 21.9831 38.3232 22.0157 38.3639C22.1866 38.5674 22.3253 38.7548 22.4228 38.999C22.4389 39.0398 22.4554 39.0805 22.4715 39.1292C22.5122 39.2513 22.553 39.398 22.5203 39.5524C22.5203 39.5685 22.5122 39.577 22.5122 39.5931L22.5113 39.594Z" fill="#331D1F"/>
<path d="M21.7872 36.9641L21.7711 36.3616L22.2842 36.3777L22.2762 36.9476L22.2435 37.5581C22.2354 37.7371 22.2435 37.8838 22.2189 37.9978C22.2108 38.0466 22.2108 38.0954 22.2108 38.1361C22.2028 38.2421 22.2108 38.315 22.1947 38.4049C22.1621 38.5351 22.0972 38.6652 22.0646 38.7874C22.0239 38.9341 21.9832 38.9909 21.8771 39.1457C21.861 39.1618 21.8203 39.219 21.8038 39.2432C21.755 39.3165 21.6978 39.3653 21.6083 39.4467C21.5837 39.4713 21.543 39.5035 21.5023 39.5442C21.4289 39.6095 21.3395 39.6744 21.2742 39.7231C21.144 39.8533 20.9239 39.9835 20.7611 40.0649C20.7204 40.081 20.6229 40.1217 20.4681 40.1951C20.4274 40.2112 20.3214 40.2604 20.2158 40.3172V40.0322C20.3625 39.9754 20.5088 39.9021 20.6229 39.8287C20.6882 39.7961 20.7369 39.7634 20.7857 39.7312C20.851 39.6985 20.9239 39.6498 20.9731 39.6171C21.0706 39.5438 21.144 39.4704 21.1847 39.4297C21.2415 39.3809 21.2907 39.3237 21.3229 39.2915C21.445 39.1533 21.5998 38.8844 21.6566 38.7136C21.6727 38.6482 21.6973 38.5261 21.7134 38.396C21.7541 38.2005 21.7541 38.1924 21.7541 37.9808C21.7622 37.8507 21.7868 37.0446 21.7868 36.9632L21.7872 36.9641Z" fill="#331D1F"/>
<path d="M23.831 40.6849L23.2365 40.6688L23.2119 39.8059L23.22 39.3827L23.2446 38.935L23.22 38.536C23.22 38.2349 23.228 37.958 23.2607 37.6565L23.2526 37.2334V36.8017L23.228 36.3374L23.7818 36.3535L23.8225 36.8093C23.8144 36.9395 23.8064 37.0782 23.8064 37.2164C23.8064 37.3546 23.8225 37.4933 23.831 37.6315L23.8229 38.0792V38.4863L23.831 38.926L23.7903 39.3657V39.8054L23.8229 40.2286L23.8068 40.6683L23.8314 40.6844L23.831 40.6849Z" fill="#331D1F"/>
<path d="M28.3731 36.3535L28.8777 36.3374L28.9104 36.8424L28.8858 37.2902L28.9019 37.7867V38.251L28.8938 38.7556L28.9019 39.1872V39.7003L28.8858 40.1807C28.8858 40.3762 28.8697 40.5144 28.8451 40.6853C28.6822 41.125 28.5275 41.5321 28.0636 41.7436C27.9254 41.817 27.7948 41.8412 27.6319 41.9065C27.4852 41.9552 27.3551 41.9633 27.1515 41.9798C26.842 41.9637 26.5002 41.8984 26.2479 41.7195C26.1258 41.6381 26.0605 41.5406 25.963 41.4592C25.857 41.3124 25.7841 41.1903 25.7434 41.0441C25.7027 40.9139 25.7273 40.743 25.7188 40.5475C25.7107 40.3279 25.7268 40.1566 25.7756 39.9696C25.8243 39.7907 25.8816 39.6113 25.9545 39.4646C25.9952 39.3586 26.052 39.2203 26.0766 39.1143L26.4349 39.2203L26.2802 39.7088L26.1661 40.1973C26.1822 40.5963 26.2882 40.8325 26.6058 41.0682C26.7847 41.1742 26.9802 41.1984 27.2003 41.1984C27.6234 41.1823 27.9983 41.1496 28.3646 40.9134L28.332 39.9772L28.34 39.5375L28.332 39.0651V37.7379L28.3566 37.2575L28.332 36.8344L28.3481 36.354H28.3727L28.3731 36.3535Z" fill="#331D1F"/>
<path d="M30.4325 40.6689C30.2858 40.6689 30.1637 40.6608 30.0742 40.5955C29.9441 40.5302 29.8627 40.4573 29.7893 40.3025C29.7325 40.1804 29.6426 40.0337 29.6511 39.806C29.6591 39.6678 29.6511 39.5291 29.6918 39.3336C29.7164 39.2035 29.7978 39.0406 29.8707 38.9105C30.0496 38.5929 30.229 38.3486 30.6361 38.3486C30.8964 38.3486 31.2386 38.5602 31.3607 38.7883C31.4341 38.9185 31.4909 39.0894 31.5562 39.2607C31.613 39.4235 31.613 39.5537 31.6376 39.7085C31.6537 39.7899 31.6622 39.8632 31.6703 39.9366H32.1019V40.5145L31.8738 40.6693H31.6622C31.6622 40.6939 31.6542 40.71 31.6542 40.7346C31.6296 40.9055 31.6135 41.0276 31.5401 41.1985C31.3853 41.7764 30.9783 42.1508 30.3516 42.1508C30.1154 42.1508 29.9284 42.0694 29.6108 41.9799L29.5947 41.5483C29.8877 41.5402 30.0832 41.5402 30.2787 41.5156C30.5882 41.5156 30.8159 41.3935 31.0601 41.2226C31.231 41.1086 31.2798 40.8563 31.3205 40.6689H30.433H30.4325ZM30.4979 39.9769H31.2632C31.2471 39.7894 31.1898 39.6266 31.1165 39.5045C31.019 39.3497 30.9698 39.2196 30.8803 39.1627C30.7501 39.0733 30.5873 39.0487 30.4406 39.0487C30.2939 39.0487 30.1964 39.0894 30.1476 39.114C30.0501 39.2607 30.0094 39.3909 30.0094 39.6025C30.0094 39.9688 30.3104 39.9769 30.4979 39.9769Z" fill="#331D1F"/>
<path d="M33.2334 39.936V40.441C33.2334 40.5793 33.1274 40.6692 33.0052 40.6692H31.8735V40.1646C31.8735 40.0179 31.9876 39.9365 32.1017 39.9365H33.2334V39.936Z" fill="#331D1F"/>
<path d="M33.8033 39.9037C33.7953 39.7655 33.7707 39.6514 33.7787 39.5293L33.7541 39.0489L33.7787 38.6257L33.7868 38.1372L33.7541 37.6975L33.7868 37.2417L33.7707 36.8101L33.7868 36.3542H34.3406V37.3312L34.3079 37.8362L34.324 38.3327L34.3079 38.8377L34.316 39.1307V39.3182C34.324 39.6277 34.3406 39.7333 34.4542 39.8147C34.5356 39.88 34.6416 39.9122 34.9426 39.9368V40.5313L34.7145 40.6695C34.5597 40.6775 34.4135 40.6368 34.2587 40.5881C34.1366 40.5393 34.0552 40.4414 33.9738 40.3439C33.9577 40.3277 33.9411 40.3112 33.9331 40.287C33.8843 40.3523 33.827 40.4011 33.7702 40.4579C33.5341 40.6368 33.2737 40.6695 33.0049 40.6695V40.1564L33.233 39.9368C33.4285 39.9368 33.6074 39.9287 33.8029 39.9041L33.8033 39.9037Z" fill="#331D1F"/>
<path d="M36.0752 39.936V40.441C36.0752 40.5793 35.9692 40.6692 35.847 40.6692H34.7153V40.1646C34.7153 40.0179 34.8294 39.9365 34.9435 39.9365H36.0752V39.936Z" fill="#331D1F"/>
<path d="M36.3195 39.2524L36.0672 38.9514C36.2139 38.7725 36.5315 38.3976 36.7104 38.292C36.808 38.2433 36.9547 38.1619 37.1256 38.1619C37.4105 38.1619 37.606 38.2759 37.8256 38.4388C37.8663 38.4634 37.8909 38.4956 37.9316 38.5202C38.3713 38.8132 38.8924 39.0086 39.4216 39.0413H39.6905L39.7066 39.6192L39.4704 39.6112C39.3809 39.6192 39.2915 39.6273 39.2015 39.6358C39.2261 39.6684 39.2503 39.7011 39.2749 39.7333C39.4458 39.9368 39.8528 39.9368 40.0971 39.9368L40.1051 40.4499L39.877 40.6695C39.584 40.6695 39.2337 40.6615 39.0302 40.4007C38.9001 40.2379 38.8347 39.8876 38.8101 39.676C38.6554 39.7006 38.5333 39.7413 38.395 39.8062C38.1262 39.9529 37.8498 40.0911 37.5563 40.1887C37.4262 40.2294 37.304 40.2947 37.1739 40.3515C37.0356 40.4168 36.905 40.4736 36.7829 40.5143C36.6769 40.5469 36.4085 40.5957 36.319 40.6284C36.1723 40.6771 35.9934 40.661 35.8467 40.6691V40.0992L36.0748 39.9364C36.2537 39.9444 36.3924 39.9364 36.5145 39.9364C36.5713 39.9364 36.6366 39.9203 36.6854 39.9118C37.011 39.8465 37.3367 39.7002 37.6623 39.6268C37.8659 39.5861 38.0694 39.5128 38.2649 39.4313C38.2895 39.4233 38.3136 39.4152 38.3302 39.4067C38.2081 39.3499 38.094 39.3092 37.9799 39.2685C37.8252 39.2117 37.7437 39.1218 37.589 39.0484C37.4669 38.9916 37.3528 38.959 37.2472 38.9263C37.1251 38.8856 37.003 38.8203 36.9055 38.8449L36.3195 39.252V39.2524Z" fill="#331D1F"/>
<path d="M41.2368 39.936V40.441C41.2368 40.5793 41.1308 40.6692 41.0087 40.6692H39.877V40.1646C39.877 40.0179 39.991 39.9365 40.1051 39.9365H41.2368V39.936Z" fill="#331D1F"/>
<path d="M41.0078 40.0501L41.2359 39.936C41.4475 39.936 41.6676 39.8873 41.8058 39.8385V39.3908L41.8465 38.9511L41.8385 38.5113L41.8058 37.6646L41.8219 37.2168V36.7691L41.8058 36.3374L42.3677 36.3293L42.3757 36.8098L42.343 38.1369C42.343 38.2103 42.3591 38.4872 42.3591 38.5521C42.3591 38.6335 42.3672 38.9184 42.3672 38.9837V39.4315C42.3672 39.8224 42.2777 40.0747 42.0496 40.3838C41.9436 40.5059 41.7647 40.5627 41.6265 40.62C41.431 40.6687 41.2601 40.6687 41.0078 40.6687V40.0501Z" fill="#331D1F"/>
<path d="M46.8537 39.2033L47.2854 39.0324C47.31 39.0892 47.3507 39.2198 47.3914 39.3661C47.416 39.4556 47.4567 39.5616 47.4889 39.6757C47.4889 39.6918 47.497 39.7083 47.497 39.7244C47.5703 39.7732 47.6437 39.8219 47.7005 39.8465C47.798 39.8953 47.9367 39.9199 48.0749 39.9199C48.2945 39.9199 48.5473 39.9038 48.7342 39.7817C48.8403 39.5294 48.8971 39.342 48.9458 38.9922L49.4669 39.1223C49.4016 39.3098 49.3609 39.448 49.3122 39.5701C49.2961 39.6188 49.2876 39.6676 49.2715 39.7168C49.2634 39.7495 49.2554 39.7821 49.2469 39.8063C49.4343 39.9123 49.6378 39.9937 49.8575 40.0098C49.955 40.0018 50.069 39.9691 50.1504 39.9445C50.1665 39.8957 50.1992 39.8063 50.2157 39.7164C50.2157 39.6104 50.1589 39.3254 50.1343 39.2198C50.1097 39.0731 50.0449 38.8535 50.0203 38.6987L50.1097 38.658L50.5494 38.552C50.5821 38.7148 50.6309 38.8696 50.6635 39.0324C50.6881 39.1626 50.7123 39.3093 50.7123 39.4395C50.7203 39.5128 50.7284 39.5862 50.7284 39.6511C50.7284 39.7812 50.7038 39.8872 50.6796 39.9928C50.6635 40.0662 50.647 40.131 50.6309 40.1963C50.5656 40.2697 50.5168 40.3431 50.46 40.3999C50.4193 40.4486 50.3705 40.4974 50.3052 40.53C50.2319 40.5953 50.1585 40.636 50.0771 40.6521C49.9957 40.6768 49.9062 40.6848 49.7841 40.6848C49.7353 40.6848 49.6781 40.6848 49.6293 40.6767C49.5479 40.6687 49.4746 40.6441 49.4012 40.5953C49.3198 40.5627 49.2384 40.5139 49.157 40.4652C49.1001 40.4245 49.0429 40.3838 48.9941 40.335C48.9861 40.3189 48.9695 40.3104 48.9615 40.2943C48.9454 40.3104 48.9369 40.3269 48.9288 40.3431C48.9042 40.3677 48.8801 40.3918 48.8555 40.4084C48.7821 40.4737 48.7007 40.5224 48.5951 40.5873C48.5625 40.6034 48.5383 40.6119 48.5057 40.6199C48.4082 40.6526 48.3021 40.6606 48.1554 40.6606H48.0986C47.9604 40.6606 47.8463 40.6445 47.6916 40.5953C47.6835 40.5873 47.667 40.5873 47.6589 40.5792C47.6589 40.8074 47.6508 41.0109 47.6021 41.2305C47.5775 41.3039 47.5453 41.3607 47.5207 41.426C47.488 41.4828 47.4554 41.5481 47.4066 41.6215C47.374 41.6622 47.3252 41.7029 47.2684 41.7436C47.2031 41.8004 47.1302 41.8577 47.0649 41.9225C47.0161 41.9552 46.9674 41.9793 46.9181 41.9959C46.8287 42.0366 46.7392 42.0612 46.6659 42.1099C46.6171 42.1345 46.5764 42.1587 46.5276 42.1753C46.4301 42.216 46.3241 42.2406 46.202 42.2647C46.1859 42.2728 46.1693 42.2728 46.1532 42.2808C46.0231 42.3054 45.8522 42.3135 45.7135 42.3135C45.5346 42.3135 45.3718 42.3135 45.209 42.2808C45.1929 42.2728 45.1763 42.2728 45.1602 42.2647C45.022 42.2321 44.8753 42.1833 44.7285 42.1019C44.6145 42.0124 44.5331 41.9552 44.4436 41.817C44.3622 41.7355 44.2808 41.5647 44.2401 41.426C44.1833 41.2878 44.1341 41.0923 44.1426 40.9295C44.1506 40.8888 44.1506 40.8561 44.1587 40.8235C44.1833 40.628 44.232 40.4732 44.2888 40.2943C44.3702 40.0581 44.4517 39.8219 44.5577 39.6023L44.8672 39.6837L44.737 40.1883L44.6556 40.636C44.6149 40.8561 44.6717 41.0185 44.7616 41.1491L44.7943 41.1979C44.8838 41.32 44.9898 41.4341 45.136 41.4828C45.1606 41.4989 45.1929 41.5074 45.2255 41.5235C45.3722 41.5723 45.5592 41.5888 45.7793 41.6049H45.828C46.1944 41.5888 46.5607 41.4909 46.9029 41.3607C47.0658 41.2547 47.1552 41.2225 47.2205 41.1326C47.2366 41.0512 47.2125 40.9371 47.1879 40.7908C47.1633 40.6526 47.1226 40.522 47.0738 40.3757C47.0577 40.3431 47.0492 40.3104 47.0331 40.2697C46.9763 40.0988 46.9436 39.9521 46.8783 39.7893C46.8703 39.7486 46.8537 39.7159 46.8376 39.6752C46.7889 39.5285 46.7236 39.3496 46.6829 39.2601L46.8537 39.2033Z" fill="#331D1F"/>
<path d="M52.1533 40.6849L51.5588 40.6688L51.5342 39.8059L51.5422 39.3827L51.5668 38.935L51.5422 38.536C51.5422 38.2349 51.5503 37.958 51.5829 37.6565L51.5749 37.2334V36.8017L51.5503 36.3374L52.1041 36.3535L52.1448 36.8093C52.1367 36.9395 52.1287 37.0782 52.1287 37.2164C52.1287 37.3546 52.1448 37.4933 52.1533 37.6315L52.1452 38.0792V38.4863L52.1533 38.926L52.1126 39.3657V39.8054L52.1452 40.2286L52.1291 40.6683L52.1537 40.6844L52.1533 40.6849Z" fill="#331D1F"/>
<path d="M53.5374 38.9186C53.5701 39.0568 53.6269 39.1874 53.6757 39.3095C53.7244 39.4397 53.7325 39.6106 53.7732 39.7246C53.8626 39.7815 53.944 39.8307 54.0255 39.8629L54.0823 39.879C54.2044 39.9036 54.3346 39.9523 54.5868 39.9358V40.5218L54.3587 40.6685C54.2285 40.6685 54.0984 40.6604 53.9678 40.5951C53.919 40.5705 53.8702 40.5383 53.813 40.5137C53.7969 40.7011 53.7155 41.0916 53.6175 41.2303L53.5929 41.2871C53.5276 41.4253 53.4708 41.5394 53.3648 41.6208C53.2588 41.7349 53.1366 41.8404 53.0065 41.9219C52.9331 41.9545 52.8356 41.9626 52.7215 41.9706H52.5507C52.3145 41.9706 52.1682 41.9138 52.0215 41.8324V41.3846C52.2984 41.3846 52.5019 41.36 52.7054 41.3193C52.8437 41.2379 52.9658 41.1726 53.0718 41.0912C53.0879 41.0831 53.0964 41.0666 53.1125 41.0585C53.1858 40.9932 53.2753 40.8957 53.3241 40.8062C53.3402 40.6922 53.3487 40.6273 53.3567 40.5133C53.3728 40.4072 53.3487 40.3097 53.308 40.1062C53.2673 39.976 53.2346 39.8539 53.1858 39.6991C53.1697 39.6584 53.1612 39.6177 53.1451 39.577C53.0883 39.4223 53.0798 39.2268 53.023 39.1047L53.5361 38.9172L53.5374 38.9186Z" fill="#331D1F"/>
<path d="M55.7192 39.936V40.441C55.7192 40.5793 55.6132 40.6692 55.4911 40.6692H54.3594V40.1646C54.3594 40.0179 54.4734 39.9365 54.5875 39.9365H55.7192V39.936Z" fill="#331D1F"/>
<path d="M56.8515 39.936V40.441C56.8515 40.5793 56.7455 40.6692 56.6234 40.6692H55.4917V40.1646C55.4917 40.0179 55.6058 39.9365 55.7198 39.9365H56.8515V39.936Z" fill="#331D1F"/>
<path d="M58.9836 41.4257L58.4299 41.5724L57.6726 41.8573L57.1841 41.9794V41.5724L57.6806 41.4503L57.9982 41.3281L58.4947 41.1573L58.9832 41.0352V41.4261L58.9836 41.4257Z" fill="#331D1F"/>
<path d="M57.5598 40.2213C57.2909 40.555 57.0713 40.6691 56.6235 40.6691V40.0585L56.8432 39.9364C56.9899 39.9364 57.2422 39.9037 57.3884 39.8143C57.5106 39.6595 57.6166 39.5132 57.706 39.3584C57.7794 39.1876 57.8608 38.9921 57.9257 38.8619C58.0151 38.683 58.3001 38.3489 58.4875 38.2674C58.585 38.2187 58.7317 38.178 58.8619 38.178C59.0328 38.178 59.1714 38.2267 59.2936 38.3081C59.4076 38.4057 59.4971 38.5036 59.5704 38.6499C59.6519 38.7881 59.7252 38.9268 59.7333 39.1138C59.7413 39.2927 59.774 39.464 59.7579 39.651C59.7418 39.8545 59.5136 40.3756 59.4076 40.5626L59.188 40.6033L58.789 40.4651L58.3573 40.2696L57.9749 40.1475L57.6899 40.0254C57.6492 40.0907 57.6005 40.1556 57.5598 40.2209V40.2213ZM58.0075 39.4314L59.2694 39.863C59.3101 39.7409 59.2855 39.5861 59.2367 39.3906C59.196 39.2439 59.1392 39.1384 59.0659 39.0082C58.9518 38.8941 58.8462 38.8534 58.6749 38.8615C58.5448 38.8615 58.4387 38.8861 58.2925 38.9022C58.1949 39.0977 58.0809 39.2766 58.0075 39.4314Z" fill="#331D1F"/>
</svg>
